<?xml version="1.0" encoding="UTF-8"?>
<svg id="_レイヤー_2" data-name="レイヤー_2" xmlns="http://www.w3.org/2000/svg" viewBox="0 0 128.2 99.76">
  <defs>
    <style>
      .cls-1, .cls-2 {
        fill: #231815;
      }

      .cls-2 {
        fill-rule: evenodd;
      }
    </style>
  </defs>
  <g id="_レイヤー_1-2" data-name="レイヤー_1">
    <g>
      <path class="cls-2" d="M71.69,16.04c.97,0,2.18,1.76,2.41,2.29.15.37.27,1.07.27,1.27,0,1.46-1.57,1.61-2.41,1.61-.52,0-2.01-.3-2.01-1.37,0-.19-.24-.66-.24-.86,0-.72.67-2.94,1.97-2.94ZM89.36,28.98h.77c-.32.88-.6,1.87-1.1,2.22.07.05.2.11.14.11-.14.37-.3.92-.57,1.5-.12-.09-.13-.04-.13-.23s.55-2.4.88-3.59ZM95.91,46.98c.61.8,1.24,1.82,1.87,2.79-.29.11-.32.32-.24.55-.32.25-.62.16-1.33.26-.09-.26,0-.58,0-.78,0-.09-.3-2.82-.3-2.82ZM101.81,34.73c-.42.9-.5,1.74-.89,2.82-.73,2-1.15,3.33-2.28,4.95.15.21.31.45.46.72.07.02.22.02.31.04.09.06.18.06.18.25s-.16.04-.16.23.19.48.33.77c.17.33.49.69.74,1.09.37.6.74,1.33,1.28,2,.07.02.22.02.31.04.28.22.53.84.73,1.2-.09.1-.25.18-.39.3.77.56,1.15,1.86,1.81,2.83-.46.31-2.9,1.52-3.27,1.52-.14,0-.29-.63-.79-.63-1.1,0-2.44.7-3.31.94l-3.79.08h-.47c-1.5,0-1.73-.08-2-.09-.01-.18-.01-.42,0-.64l-.13-.13c-.92.31-2.8,1.1-2.99,1.09h-5.31c.25-.28.1-.81,0-1.06.26-.1.58-.1.8-.12.14-.27.26-.63.48-.88.32-.36.77-.57,1.11-.84.23-.08.23-.15.76-.36.66-.01,1.36-.13,2.07-.2.09,0,.22-.12.33-.19.02-.3-.06-.68-.05-1.02.25-.09.48-.09.7-.22-.07-.05-.12-.12-.23-.14.33-.28.23-3.78.23-3.78-.07-.05-.08-.23-.07-.29-.29-.06-.89-.14-1.08-.15h-4.36c.07-.74.31-1.78.36-1.85.11-.31.16-.71.23-1.01.24-1.02.5-2.11.71-3.13.03-.08.09-.16.13-.23,2.41-4.72.71-2.54.53-2.42-.16.11,3.41-7.14,3.41-7.34,0-.51-1.14-.42-1.47-.51,0-.34,1.01-.13,1.02-1.72.25-.09-1.43-.03-1.2-.06.15-.12.6-.42.6-.61s-.43-.22-.62-.22-1.15.31-1.69.41c-1.41.26-2.26.37-3.54.29-.35.35-.29,1.07-.48,1.44-.23.44-.9.68-1.34.68-.58,0-2.74-.71-2.85-.91-.11-.2-.18-.54-.17-.75-1.32-.22-3.79-.61-3.99-.61-.61,0-2.42,1.57-3.63,1.57-1.78,0-6.11-1.62-6.11-3.68,0-.2-.24-.75-.22-.82-.17-.38-.33-1.06-.33-1.26s.11-.45.26-.65c.63-.78,1.7-.95,2.53-.95,2.12,0,6.64,1.85,7.44,4.45,1.4.33,2.9.64,4.37.88.26-.56,1.15-1.75,1.8-1.7-.15-.11-.44-.34-.67-.37-.17-.23-1.38-1.53-1.38-2.28,0-.19.12-.45.26-.65.44-.59,1.16-.88,1.63-.88.69,0,.87.41.87.82,0,.31.52.2.55.2.25,0,.92.12.88-.46l4.36.14c.16,0,.25.16.39.24.06-.07.22-.15.31-.21.7.07,1.2-.2,1.61-.71.2-.25.2-.74.36-1,.15-.22.37-.4.47-.71.38-.34,1.47-1.21,1.47-1.41s-.23-.61-.39-.88c.42-.1.83-.26,1.2-.26l.13-.12c-.07-.05-.08-.23-.07-.28-.91-.1-2.22-.58-3.13-1.4-.13.08-2.43-1.98-1.61-2.4-.08-.29-.16-.69-.16-.89,0-.14,10.48-1.06,10.48-1.06v1.1c-.07.76-.2,1.2-.55,1.88-.4.76-1.42,1.49-1.42,1.68s.27.58.23.73c.07.06,0,.05.2.05s1.73-.31,2.63-.46c.01.11.09.07.09.26s-.16.98-.16,1.18c0,.17,1.3.98,1.38,1.09.27.36.67.81.87,1.32.11.29.26.7.47,1.04.19.93.66,2.66.66,2.85s0,2.3.09,3.7c.13.15.73.61.92.62.09.65.09,1.36.16,2.09-.34.09-1.9-.78-2.19-.72.24.36.38,1.81,1.09,2.74M89.29,9.28c.29-2.6-1.25-4.03-1.25-4.03h-.39l-.59.25s-.08-.13,0,.21-.24.21-.04.5c.1.14.14.24.16.32.02.09,0,.16,0,.22,0,.13-.04.34-.04.34,0,0-.17.21-.19.5l-.02.29v.34s.21.04,0,.29-.17.37-.17.37v.18s-.14.05-.21.15c-.05.07.31.51.44.32.18-.27.44-.71.73-1.22.94-1.65,2.22-4.06,2.28-4.17.08-.17.21-.42,1.01-.55s.92.08,1.09,0-.42-.21.5-.04l.92.17s.04-.04.21.08.42,0,.55.34-.04.08.13.34.17.25.34.34-.13-.17.17.08,0-.34.29.25l.29.59s-.25-.08,0,.25.08.08.25.34-.04-.08.17.25l.21.34s-.29.25,0,.46.17-.17.29.21l.13.38s.21-.21,0,.21-.3.12-.21.42l.09.3v.24s-4.78-3.89-4.78-3.89l-1.57-1.28-.67-.21c-.29.04-.55.08-.55.08,0,0-.04,0-.21.08l-.17.08s.29-.21,0,0-.08.08-.29.21.08-.21-.21.13-.5.29-.55.59-.29.25-.46.42l-.17.17s.34-.55,0,0l-.34.55s.08.17,0,.29-.25.46-.25.46v.59s.21.08,0,.21-.13.04-.21.34,0-.17-.08.29-.34.25-.08.46l.25.21.17.34,3.08-2.01,2.12-1.39.25-.17-1.01-.5s.13-.29-.29,0-.34.97-.55.97-.97.42.88.8l.44.09,1.4.29-.46.5,1.3-.04s-.67-.76-.04-.29,2.86,1.93.55.25-.51-1.39-2.31-1.23-2.31.43-2.31.43c0,0-1.07,2.27-1.01,1.6s-1.84-1.05-.92-2.03-.5-1.42-.21-2c.08-.15.11-.24.12-.28.04-.13-.08.03.17-.31.34-.46.13-.29.34-.46s.13-.34.42-.34h.92c-1.6-.32-2.49-.27-2.98-.08-.87.34-.45,1.13-.45,1.13,0,0-.11.51.4.53.07,0,.16,0,.26-.03.8-.17-1.3.17-.76.67.08.07.15.14.21.21.4.4.56.67.42.67-.17,0-2.69.04-.97,0s4.16-3.61,4.16-3.61c0,0-.58-.71.23-.46s-.48,1.68.65.92,1.09-1.12,1.26-.98.17.26.46.31,0-.04.29.04-.21-.29.29.08.25.21.5.38c.16.11.38.11.68.13.16.01.36.03.58.08l.63.13s.17.07.37.16c.28.12.62.28.68.34s-.15,0-1.05-.33c-2.39-.88-3.19-.76-3.19-.76l-.26-1.01-.28-1.09s1.76,1.55,1.93,1.6-5.13,1.09-4.37,1.89.84,3.31,2.52,3.53,4.83.92,5.46-.63-5.42-1.33-4.79-1.88,1.34-1.1,1.76-1.77,0-.34.42-.67-4.2-.88-4.87-1.39c-.22-.16-.38-.26-.51-.32-.26-.12-.33-.06-.33-.06,0,0-3.93,5.84-3.84,5.96s-.49.21-.49.21c0,0,.88.92,1.09.92s-.8.25-.13.5-1.8.08-.21.41.04.47.42.47-1.74.11.42.23,4.7-.9,5-1.03l.29-.13s-.08-.63,1.18-.13,1.26.29,1.47-.13.55-1.55.55-1.55c0,0,.17-.63.29-.67s1.18-1.39,1.18-1.39c.14-.83-.08-1.51.04-1.47s-.06,1.27.17,1.34c.38.13.68.78.93.64s-.38-1.99-.42-2.16-1.55-.59-1.55-.59c0,0,.42-.08.46-.29s-.13-.13-.38-.38-.97-.08-1.39-.46-1.68-.29-1.34-.63-2.1-.59-2.1-.59l6.78,1.93-12.75,3.86.29-2.27,2.14-1.85.97-1.05-2.31,1.18"/>
      <path class="cls-1" d="M43.5,72.28c6.56,15.7,22.14,26.74,40.32,26.74,24.1,0,43.64-19.41,43.64-43.36,0-17.58-10.52-32.71-25.65-39.52l.21-.72c15.44,6.9,26.19,22.32,26.19,40.24,0,24.36-19.87,44.1-44.38,44.1-18.41,0-34.19-11.13-40.92-26.99l.6-.49ZM83.39,12.3c-7.89.07-15.28,2.23-21.64,5.95-2.06,1.2-4.22,2.63-6.04,4.14l1.67-1.65c1.03-.85,1.12-1.12,2.23-1.88,1.36-.93,1.79-1.29,3.25-2.07,6.16-3.29,13.19-5.17,20.65-5.22l-.11.74Z"/>
      <path class="cls-1" d="M58.22,73.44c5.65,8.01,15.01,13.25,25.6,13.25,17.25,0,31.24-13.9,31.24-31.04,0-9.61-4.4-18.2-11.3-23.89l.6-.46c6.99,5.83,11.43,14.57,11.43,24.35,0,17.55-14.32,31.77-31.98,31.77-11.03,0-20.76-5.55-26.5-13.99h.9Z"/>
      <g>
        <path class="cls-2" d="M39.53,42.48c.02.14.02.29.02.43v.41c0,.5-.13.99-.39,1.47-.25.47-.59.9-1.04,1.27-.45.36-.98.65-1.6.88-.62.21-1.31.32-2.06.32-1.07,0-1.9-.21-2.49-.65-.58-.44-.87-1.1-.87-1.96,0-.73.24-1.41.74-2.05.51-.63,1.24-1.18,2.21-1.64.97-.47,2.15-.84,3.56-1.1,1.42-.27,3.03-.41,4.86-.41.65,0,1.36.03,2.12.09.77.06,1.47.09,2.12.09v.04c-.79.14-1.52.45-2.19.93-.65.46-1.26,1.02-1.84,1.68-.58.66-1.13,1.39-1.65,2.2-.52.79-1.04,1.59-1.56,2.41-.5.8-1.02,1.59-1.54,2.35-.52.75-1.08,1.41-1.67,2-.58.59-1.21,1.06-1.89,1.42-.68.36-1.42.54-2.23.54-.85,0-1.57-.18-2.15-.54-.58-.36-.9-.88-.98-1.57.07.03.16.04.26.04.19,0,.35-.06.5-.19.14-.13.22-.3.22-.52,0-.23-.08-.42-.24-.56-.14-.16-.33-.24-.56-.24-.33,0-.59.12-.78.34-.17.21-.26.48-.26.8,0,.5.12.93.35,1.27.25.35.55.62.91.84.38.2.79.34,1.24.43.45.1.87.15,1.28.15,1.07,0,2.03-.19,2.88-.56.85-.37,1.61-.83,2.28-1.38.67-.55,1.24-1.13,1.71-1.75.49-.62.9-1.17,1.21-1.66.92-1.42,1.7-2.66,2.32-3.72.62-1.08,1.22-1.97,1.8-2.67.58-.72,1.2-1.25,1.86-1.59.68-.36,1.52-.54,2.54-.54h1.28c.35-.01.62-.03.82-.06.2-.03.34-.08.41-.15.09-.09.13-.19.13-.32,0-.2-.07-.35-.22-.45-.14-.12-.3-.17-.48-.17-.2,0-.45.02-.74.07-.27.04-.62.06-1.04.06-.48,0-1.05-.02-1.71-.06-.67-.04-1.4-.07-2.21-.07-2.63,0-4.83.2-6.61.6-1.78.39-3.21.88-4.29,1.49-1.08.6-1.86,1.27-2.34,2-.46.73-.69,1.44-.69,2.13,0,.85.29,1.54.87,2.07.59.53,1.48.8,2.67.8.79,0,1.52-.12,2.19-.34.66-.23,1.24-.54,1.71-.93.49-.4.87-.85,1.13-1.36.27-.52.41-1.05.41-1.62v-.39c0-.13,0-.27-.02-.41h-.26Z"/>
        <path class="cls-2" d="M51.79,42.97h-.03c-.03-.13-.08-.25-.14-.38-.05-.12-.13-.23-.23-.32-.1-.1-.23-.17-.38-.22-.15-.06-.33-.09-.53-.09-.42,0-.87.14-1.35.44-.47.29-.91.66-1.31,1.09-.41.43-.74.9-1,1.4-.26.49-.39.94-.39,1.35,0,.29.08.55.23.78.15.23.41.34.79.34.22,0,.45-.05.69-.16.24-.11.47-.25.7-.4.23-.16.44-.33.63-.51.2-.19.37-.35.5-.5l.03.02c-.05.14-.1.28-.15.42-.04.13-.06.27-.06.41,0,.2.07.37.2.52.14.14.36.21.65.21.35,0,.73-.13,1.13-.4.4-.28.8-.63,1.21-1.04.4-.41.79-.85,1.15-1.32.37-.48.7-.93.97-1.34l-.09-.03c-.36.54-.75,1.05-1.15,1.53-.4.48-.8.9-1.18,1.26-.38.36-.74.65-1.07.86-.32.2-.59.3-.8.3-.27,0-.41-.13-.41-.39,0-.18.08-.43.24-.74.16-.32.37-.68.63-1.09.27-.42.58-.88.92-1.37.34-.49.7-1,1.07-1.52h-.98l-.5.89ZM47.35,46.29c0-.45.11-.92.33-1.41.23-.49.52-.94.85-1.34.33-.41.69-.75,1.06-1.01.37-.26.71-.39,1.01-.39.19,0,.35.06.48.18.13.12.2.3.2.53,0,.29-.06.6-.18.92-.12.32-.28.63-.47.95-.19.31-.41.6-.66.89-.24.27-.49.51-.74.72-.25.21-.5.38-.73.51-.23.12-.43.18-.61.18s-.31-.06-.41-.18c-.09-.13-.14-.31-.14-.54Z"/>
        <path class="cls-2" d="M59.1,36.9c-1.13,1.75-2.25,3.48-3.37,5.2-1.11,1.7-2.22,3.42-3.34,5.15h1c.17-.33.38-.68.62-1.05.24-.38.5-.76.77-1.13.28-.38.57-.74.86-1.08.3-.35.6-.66.88-.92.29-.27.56-.48.82-.63.25-.16.47-.24.66-.24.14,0,.26.05.36.15.1.1.15.26.15.47,0,.24-.06.46-.17.64-.1.19-.25.36-.44.5-.19.13-.42.23-.68.3-.25.07-.53.11-.83.11-.11,0-.21,0-.29-.02-.07,0-.14-.02-.2-.02-.15,0-.23.04-.23.14s.07.14.23.14c.17,0,.32-.02.45-.06.14-.04.26-.06.36-.06.17,0,.26.09.26.29,0,.09-.03.21-.11.36-.07.14-.15.3-.23.47-.08.16-.16.33-.23.51-.07.17-.11.33-.11.46,0,.27.08.47.24.6.17.13.41.19.71.19.35,0,.74-.12,1.16-.36.43-.24.87-.6,1.35-1.07.49-.49.92-.97,1.28-1.44.37-.47.66-.84.85-1.11l-.14-.09c-.38.55-.74,1.02-1.07,1.41-.33.39-.66.75-.98,1.07-.46.46-.9.81-1.31,1.05-.41.24-.76.36-1.03.36-.16,0-.24-.1-.24-.29,0-.14.02-.28.06-.4.05-.14.11-.28.17-.42.06-.14.11-.28.15-.41.05-.13.08-.25.08-.38,0-.18-.05-.35-.14-.51-.08-.17-.18-.29-.3-.35v-.03c.21-.04.44-.1.7-.18.26-.08.5-.19.71-.32.22-.14.4-.3.54-.48.15-.19.23-.41.23-.65s-.07-.42-.23-.59c-.14-.16-.38-.24-.71-.24s-.63.07-.94.23c-.29.15-.58.34-.86.58-.27.23-.54.5-.8.79-.25.29-.51.58-.77.87l-.03-.03c.89-1.22,1.74-2.46,2.57-3.71.83-1.26,1.65-2.54,2.48-3.84l-.94.04Z"/>
        <path class="cls-2" d="M68.64,43.37c-.23.24-.48.44-.76.59-.26.15-.54.23-.85.23-.34,0-.61-.1-.82-.29-.19-.2-.3-.41-.32-.65-.02-.38-.15-.69-.38-.93-.22-.24-.54-.36-.95-.36-.35,0-.71.07-1.06.21-.34.13-.67.31-.98.54-.31.22-.6.47-.88.76-.26.28-.49.57-.69.87-.19.29-.34.58-.45.87-.11.29-.17.54-.17.77,0,.42.11.76.33,1,.22.25.55.37.98.37.48,0,.94-.12,1.39-.36.45-.24.87-.54,1.24-.9.38-.36.71-.76.98-1.19.27-.43.46-.84.56-1.22h.03c.11.17.27.32.47.45.2.12.44.18.73.18s.59-.08.89-.24c.3-.16.57-.37.82-.64l-.12-.08ZM61.16,46.35c0-.27.05-.56.15-.87.1-.31.24-.62.41-.93.18-.31.38-.61.6-.9.22-.29.45-.54.69-.76.25-.22.5-.4.74-.53.24-.14.47-.21.68-.21.22,0,.38.07.48.22.11.14.17.32.17.53,0,.25-.04.53-.14.84-.09.3-.22.61-.38.93-.15.32-.33.63-.54.93-.21.3-.44.57-.7.81-.24.23-.5.42-.77.57-.26.14-.53.21-.8.21-.2,0-.35-.08-.45-.22-.1-.15-.15-.36-.15-.62Z"/>
        <path class="cls-2" d="M72.87,36.9c-.49.78-1.02,1.6-1.57,2.46-.56.85-1.12,1.72-1.71,2.6-.57.88-1.15,1.77-1.74,2.66-.58.89-1.15,1.77-1.71,2.63h.98c.12-.24.29-.53.5-.87.22-.34.47-.7.75-1.08.29-.38.6-.75.92-1.13.32-.38.64-.72.97-1.02.33-.3.65-.54.95-.72.31-.19.59-.29.85-.29.13,0,.24.03.33.09.09.06.14.17.14.33,0,.13-.06.29-.18.48-.11.18-.26.38-.44.6-.17.22-.36.46-.56.71-.2.24-.39.49-.58.74-.17.24-.32.48-.44.72-.11.24-.17.46-.17.66,0,.28.08.5.24.66.17.16.39.24.65.24s.53-.07.82-.21c.29-.15.58-.34.88-.57.3-.24.6-.51.89-.8.3-.3.58-.6.83-.9.26-.3.49-.59.69-.86.2-.27.36-.5.47-.69l-.09-.03c-.09.16-.24.37-.44.63-.19.25-.41.52-.67.81-.24.28-.51.57-.8.86-.29.29-.59.56-.89.8-.29.23-.58.42-.86.57-.27.14-.52.21-.76.21-.11,0-.2-.03-.27-.1-.06-.08-.09-.17-.09-.29,0-.14.06-.31.17-.51.12-.21.27-.43.44-.66.18-.24.37-.48.57-.74.2-.25.39-.5.56-.74.18-.25.33-.49.44-.71.12-.22.18-.41.18-.57,0-.61-.31-.92-.92-.92-.35,0-.71.1-1.06.3-.35.2-.69.45-1.01.74-.31.29-.6.6-.87.93-.27.32-.51.61-.71.86l-.03-.03,5.35-7.9-1.01.04Z"/>
      </g>
      <g>
        <g>
          <path class="cls-2" d="M21.18,17.08c-.62.96-1.23,1.9-1.82,2.82-.59.92-1.18,1.85-1.77,2.79h1.07c.17-.41.38-.82.61-1.21.24-.39.47-.71.69-.95.6-.68,1.17-1.26,1.71-1.75.54-.5,1.03-.9,1.48-1.21l.03.03c-.12.21-.18.44-.18.7,0,.38.11.68.31.9.22.21.5.31.85.31.2,0,.39-.03.57-.1.19-.08.36-.17.53-.28.16-.11.32-.22.46-.34.14-.13.27-.25.38-.36l-.1-.07c-.1.09-.21.19-.34.29-.13.11-.27.21-.41.31-.14.1-.29.18-.46.24-.15.07-.31.1-.48.1-.19,0-.35-.07-.48-.21-.12-.14-.18-.34-.18-.59,0-.31.09-.6.26-.87.17-.27.36-.5.54-.68-.1-.01-.2-.02-.3-.02-.09-.01-.19-.02-.31-.02-.2,0-.33.03-.39.1-.07.06-.13.15-.18.26-.3.2-.6.42-.9.67-.31.25-.6.51-.89.77-.27.25-.53.5-.77.75-.23.24-.42.45-.58.64l-.03-.03,2.09-3.02h-1Z"/>
          <path class="cls-2" d="M28.93,17.61c0,.28-.12.55-.36.8-.24.24-.53.45-.87.64-.33.18-.67.34-1.03.47-.36.12-.66.2-.9.25.11-.24.27-.51.48-.82.22-.3.46-.59.72-.85.26-.27.53-.5.79-.67.27-.18.53-.28.76-.28.12,0,.22.04.3.11.09.08.13.19.13.34ZM31.46,18.39c-.33.53-.72,1.05-1.18,1.55-.46.5-.94.95-1.45,1.34-.5.39-1,.71-1.5.95-.48.23-.9.34-1.26.34-.15,0-.28-.03-.39-.1-.1-.07-.18-.15-.25-.24-.05-.11-.1-.22-.13-.34-.02-.13-.03-.26-.03-.39,0-.27.04-.54.12-.82.08-.27.18-.52.3-.73.36-.08.78-.19,1.25-.34.47-.16.91-.34,1.31-.54.42-.21.77-.43,1.05-.67.28-.25.43-.5.43-.77,0-.22-.08-.38-.23-.49-.15-.12-.37-.18-.64-.18-.49,0-1.01.15-1.54.44-.54.29-1.03.66-1.48,1.11-.45.45-.82.94-1.12,1.47-.28.52-.43,1.02-.43,1.5,0,.44.12.77.38,1.01.25.23.61.34,1.07.34.37,0,.75-.06,1.13-.19.39-.14.78-.33,1.17-.56.38-.24.75-.5,1.1-.8.36-.3.7-.62,1-.93.32-.33.6-.65.84-.98.25-.33.46-.62.62-.9l-.13-.08Z"/>
          <path class="cls-2" d="M35.28,18.05h-.03c-.03-.14-.08-.28-.15-.41-.05-.13-.14-.25-.25-.34-.11-.11-.25-.19-.41-.25-.16-.06-.35-.1-.58-.1-.46,0-.95.16-1.46.47-.51.32-.99.71-1.43,1.19-.44.47-.8.97-1.09,1.52-.28.53-.43,1.02-.43,1.47,0,.32.08.6.25.85.16.25.45.37.85.37.24,0,.5-.06.76-.18.26-.12.52-.27.76-.44.25-.17.48-.36.69-.55.22-.21.4-.39.54-.54l.03.02c-.05.15-.11.3-.16.46-.04.14-.07.29-.07.44,0,.22.07.41.21.57.15.15.39.23.71.23.38,0,.79-.15,1.23-.44.44-.3.88-.68,1.31-1.13.44-.45.85-.92,1.25-1.44.41-.52.76-1.01,1.05-1.45l-.1-.03c-.39.59-.81,1.14-1.25,1.66-.44.52-.86.98-1.28,1.37-.42.39-.8.7-1.17.93-.35.22-.64.33-.87.33-.29,0-.44-.14-.44-.43,0-.2.09-.46.26-.8.18-.35.41-.75.69-1.19.3-.46.63-.95,1-1.48.37-.53.76-1.08,1.16-1.65h-1.07l-.54.96ZM30.46,21.65c0-.49.12-1,.36-1.54.25-.53.56-1.02.92-1.45.36-.45.75-.81,1.15-1.09.41-.28.77-.42,1.1-.42.21,0,.38.06.53.19.14.13.21.32.21.57,0,.32-.07.65-.2,1-.13.35-.3.69-.51,1.03-.21.34-.45.66-.72.96-.26.3-.53.56-.8.78-.27.23-.54.41-.79.56-.25.13-.47.19-.66.19s-.33-.06-.44-.19c-.1-.14-.15-.34-.15-.59Z"/>
          <path class="cls-2" d="M40.64,15.19l-1.28,1.89h-.92l-.1.2h.89c-.31.48-.61.93-.9,1.35-.29.42-.54.82-.77,1.18-.23.36-.42.7-.56,1.01-.14.3-.21.58-.21.83,0,.37.12.66.36.87.25.2.55.31.89.31.43,0,.87-.14,1.34-.42.48-.28.96-.63,1.43-1.06.47-.44.93-.91,1.36-1.42.45-.52.86-1.02,1.23-1.48l-.1-.07c-.29.39-.66.83-1.08,1.32-.43.49-.87.95-1.35,1.39-.47.44-.95.81-1.43,1.11-.47.29-.9.44-1.3.44-.18,0-.35-.04-.49-.12-.14-.09-.21-.23-.21-.44,0-.2.06-.42.18-.67.12-.26.3-.58.53-.95.24-.38.53-.83.87-1.34.35-.52.74-1.14,1.18-1.84h2.2l.1-.2h-2.17l1.3-1.89h-.99Z"/>
          <path class="cls-2" d="M44.09,17.08c-.51.77-.96,1.43-1.33,1.96-.36.52-.66.97-.89,1.34-.23.37-.4.69-.51.95-.1.25-.15.49-.15.72,0,.2.07.38.21.54.14.16.36.24.66.24.26,0,.55-.08.85-.23.32-.15.64-.36.97-.6.33-.25.65-.53.97-.85.32-.31.62-.63.9-.95.28-.33.54-.64.75-.95.23-.31.41-.57.54-.78l-.13-.08c-.1.19-.26.42-.48.72-.21.28-.45.58-.74.9-.27.31-.57.62-.89.93-.32.32-.63.6-.95.85-.32.25-.63.46-.92.62-.29.15-.54.23-.76.23s-.34-.14-.34-.43c0-.14.05-.33.16-.55.12-.23.31-.54.56-.93.26-.39.6-.88,1.02-1.47.42-.59.93-1.31,1.53-2.17h-1.05ZM46.09,14.05c-.15,0-.28.06-.38.16-.1.1-.15.22-.15.38s.05.28.15.39c.1.1.23.15.38.15s.28-.05.38-.15c.1-.11.15-.24.15-.39s-.05-.28-.15-.38c-.1-.11-.22-.16-.38-.16Z"/>
          <path class="cls-2" d="M47.7,17.08c-.17.28-.4.61-.69.98-.28.37-.57.76-.84,1.16-.27.39-.51.78-.72,1.17-.2.38-.3.74-.3,1.06,0,.49.12.84.36,1.06.25.2.61.31,1.07.31s.97-.12,1.46-.36c.5-.24.97-.54,1.41-.91.44-.38.82-.79,1.15-1.24.34-.46.57-.9.71-1.32.15.13.34.25.56.36.22.1.45.15.69.15.19,0,.37-.02.56-.07.19-.05.36-.12.52-.21.17-.1.31-.21.45-.34.14-.13.25-.28.33-.44l-.13-.08c-.21.34-.48.58-.8.73-.32.14-.62.21-.9.21-.22,0-.44-.05-.67-.15-.23-.11-.4-.24-.52-.41,0-.1.02-.2.03-.29.02-.11.03-.22.03-.34,0-.42-.06-.72-.18-.9-.11-.17-.24-.26-.39-.26-.14,0-.25.05-.33.16-.08.11-.12.23-.12.36,0,.12.02.23.07.33.04.1.07.19.07.28,0,.36-.12.8-.36,1.32-.24.51-.55,1.01-.92,1.5-.37.48-.78.89-1.23,1.22-.45.34-.89.51-1.31.51-.29,0-.49-.07-.61-.21-.12-.14-.18-.31-.18-.5,0-.33.11-.71.33-1.16.22-.44.47-.89.77-1.34.31-.46.62-.89.93-1.3.32-.41.58-.76.79-1.03h-1.07Z"/>
          <path class="cls-2" d="M57.19,17.61c0,.28-.12.55-.36.8-.24.24-.53.45-.87.64-.33.18-.67.34-1.03.47-.36.12-.66.2-.9.25.11-.24.27-.51.48-.82.22-.3.46-.59.72-.85.26-.27.53-.5.79-.67.27-.18.53-.28.76-.28.12,0,.22.04.29.11.09.08.13.19.13.34ZM58.54,19.94c-.46.5-.94.95-1.45,1.34-.5.39-1,.71-1.5.95-.48.23-.9.34-1.27.34-.15,0-.29-.03-.39-.1-.1-.07-.18-.15-.25-.24-.06-.11-.1-.22-.13-.34-.02-.13-.03-.26-.03-.39,0-.27.04-.54.11-.82.08-.27.18-.52.3-.73.36-.08.78-.19,1.25-.34.47-.16.91-.34,1.31-.54.41-.21.77-.43,1.05-.67.28-.25.43-.5.43-.77,0-.22-.08-.38-.23-.49-.15-.12-.37-.18-.64-.18-.49,0-1.01.15-1.54.44-.54.29-1.03.66-1.48,1.11-.45.45-.82.94-1.12,1.47-.29.52-.43,1.02-.43,1.5,0,.44.12.77.38,1.01.25.23.61.34,1.07.34.37,0,.75-.06,1.13-.19.39-.14.78-.33,1.17-.56.38-.24.75-.5,1.1-.8.36-.3.69-.62,1-.93.32-.33.6-.65.84-.98.25-.33-.23.07-.69.57Z"/>
        </g>
        <path class="cls-2" d="M12.8,15.85c-.02.1-.03.23-.03.37v.34c.04.79.3,1.34.79,1.67.49.31,1.08.47,1.76.47.65,0,1.28-.1,1.89-.31.61-.23,1.16-.52,1.63-.89.49-.38.88-.83,1.16-1.36.3-.52.45-1.09.45-1.7,0-.87-.27-1.53-.81-1.98-.54-.45-1.37-.68-2.47-.68-.89,0-1.88.2-2.97.6-1.07.4-2.14.95-3.23,1.65-1.07.68-2.11,1.49-3.13,2.43-1.02.92-1.92,1.91-2.71,2.98-.77,1.06-1.39,2.17-1.87,3.31-.47,1.13-.71,2.25-.71,3.34,0,.47.08.98.24,1.54.17.54.46,1.04.84,1.52.39.47.88.86,1.5,1.17.63.31,1.4.47,2.31.47,1.21,0,2.28-.22,3.21-.65.95-.43,1.73-.98,2.37-1.62.63-.66,1.1-1.37,1.42-2.11.33-.75.5-1.43.5-2.04,0-1.04-.27-1.79-.82-2.22-.52-.43-1.34-.65-2.44-.65l.03.31c.7,0,1.25.18,1.65.55.42.37.63.9.63,1.59,0,.77-.17,1.54-.52,2.32-.35.77-.83,1.46-1.42,2.09-.58.63-1.26,1.14-2.05,1.54-.77.38-1.59.57-2.44.57-.6,0-1.1-.11-1.52-.34-.42-.24-.76-.56-1.02-.94-.26-.4-.45-.85-.58-1.33-.12-.49-.18-.97-.18-1.46,0-1.2.21-2.38.63-3.55.42-1.17.98-2.28,1.68-3.34.72-1.06,1.52-2.05,2.42-2.95.91-.9,1.85-1.69,2.81-2.35.98-.66,1.94-1.18,2.89-1.54.95-.38,1.81-.57,2.6-.57.68,0,1.22.13,1.63.39.4.24.61.73.61,1.46,0,.59-.13,1.16-.39,1.7-.25.54-.57,1.02-.97,1.43-.4.4-.85.72-1.34.97-.49.23-.97.34-1.45.34-.28,0-.56-.03-.84-.08-.26-.07-.5-.17-.71-.32-.21-.16-.38-.36-.52-.6-.12-.24-.18-.55-.18-.92v-.31c0-.1,0-.21.03-.31h-.32Z"/>
      </g>
      <g>
        <g>
          <path class="cls-2" d="M35.03,29.25c-.52.77-.96,1.43-1.33,1.96-.36.52-.66.97-.89,1.34-.23.37-.4.69-.51.95-.1.25-.15.49-.15.72,0,.2.07.37.21.54.14.16.36.25.66.25.26,0,.55-.08.85-.23.32-.15.64-.35.97-.6.33-.25.65-.53.97-.85.32-.32.62-.63.9-.95.28-.33.54-.64.75-.94.23-.31.41-.57.54-.79l-.13-.08c-.1.18-.26.42-.48.72-.21.28-.45.58-.74.9-.27.3-.57.61-.89.93-.32.31-.63.6-.95.85-.32.25-.62.46-.92.62-.29.15-.54.23-.75.23s-.34-.14-.34-.43c0-.14.05-.33.16-.55.12-.23.31-.54.56-.93.26-.39.6-.88,1.02-1.47.42-.59.92-1.31,1.53-2.17h-1.05ZM37.03,26.21c-.15,0-.28.05-.38.16-.1.1-.15.22-.15.38s.05.28.15.39c.1.1.22.15.38.15s.28-.05.38-.15c.1-.11.15-.24.15-.39s-.05-.28-.15-.38c-.1-.11-.22-.16-.38-.16Z"/>
          <path class="cls-2" d="M43.52,30.6c-.3.46-.64.92-1.04,1.4-.39.47-.83.9-1.3,1.31-.46.39-.96.73-1.5,1.01-.54.27-1.1.44-1.69.51l-.03-.03c.2-.03.39-.1.58-.21.2-.11.37-.24.52-.39.15-.16.27-.34.36-.52.1-.19.15-.4.15-.6,0-.28-.04-.54-.13-.77-.08-.23-.16-.45-.26-.67-.11-.22-.21-.44-.3-.65-.08-.22-.12-.44-.12-.68,0-.27.08-.5.23-.69.15-.2.39-.29.71-.29.25,0,.44.08.57.23.14.14.21.32.21.54,0,.14-.03.3-.08.47-.04.16-.1.3-.16.42.26,0,.5-.06.71-.19.22-.13.33-.34.33-.62,0-.31-.14-.56-.41-.75-.27-.2-.63-.29-1.07-.29-.24,0-.47.04-.69.11-.22.06-.42.16-.59.29-.16.13-.3.3-.39.49-.1.18-.15.4-.15.64,0,.18.04.39.12.6.08.21.16.42.25.64.09.22.16.44.23.67.08.22.11.43.11.64,0,.2-.03.39-.08.59-.05.19-.14.37-.26.52-.11.14-.25.26-.43.36-.16.09-.36.13-.59.13-.36,0-.69-.09-.99-.28-.28-.2-.43-.48-.43-.86,0-.13.02-.25.06-.37.04-.13.12-.23.25-.29.02.1.06.18.13.25.08.06.17.1.29.1.16,0,.27-.05.34-.16.08-.11.12-.24.12-.39,0-.16-.05-.28-.16-.36-.1-.09-.23-.13-.39-.13-.32,0-.57.12-.76.34-.19.23-.28.49-.28.77s.05.51.16.72c.1.19.23.36.4.49.17.13.38.23.61.29.23.06.48.1.74.1.69,0,1.34-.12,1.94-.37.61-.26,1.18-.6,1.69-1.01.51-.41.99-.88,1.41-1.39.44-.52.82-1.04,1.15-1.57l-.1-.05Z"/>
          <path class="cls-2" d="M48.07,23.62c-.54.85-1.1,1.74-1.71,2.68-.6.93-1.22,1.87-1.86,2.82-.62.96-1.25,1.92-1.89,2.89-.64.97-1.25,1.92-1.86,2.86h1.07c.13-.26.31-.58.54-.95.24-.37.51-.76.82-1.17.32-.41.65-.82,1-1.23.35-.41.7-.78,1.05-1.11.36-.33.71-.59,1.04-.78.34-.21.65-.31.92-.31.14,0,.26.03.36.1.1.07.15.19.15.36,0,.14-.07.32-.2.52-.12.2-.28.41-.48.65-.19.24-.39.5-.61.77-.22.26-.43.53-.62.8-.19.26-.35.52-.48.78-.12.26-.18.5-.18.72,0,.3.09.54.26.72.19.17.42.26.71.26s.57-.08.89-.23c.32-.16.63-.37.95-.62.33-.26.65-.55.97-.86.33-.33.63-.65.9-.98.29-.33.54-.64.76-.93.22-.29.39-.54.51-.75l-.1-.03c-.1.17-.26.4-.48.68-.21.27-.45.57-.72.88-.26.3-.55.61-.87.93-.32.32-.64.6-.97.87-.32.25-.63.46-.94.62-.3.15-.57.23-.82.23-.12,0-.22-.04-.3-.12-.07-.09-.1-.19-.1-.31,0-.15.06-.34.18-.55.13-.23.29-.47.48-.72.2-.26.41-.53.62-.8.22-.27.42-.54.61-.8.2-.27.36-.53.48-.77.13-.24.2-.45.2-.62,0-.67-.33-1-1-1-.38,0-.77.11-1.15.33-.38.22-.75.48-1.1.8-.34.31-.66.65-.95,1.01-.3.35-.55.66-.77.93l-.03-.03,5.81-8.58-1.1.05Z"/>
          <path class="cls-2" d="M54.1,29.77c0,.28-.12.55-.36.8-.24.24-.53.45-.87.64-.33.18-.67.34-1.04.47-.36.12-.66.2-.9.24.11-.24.27-.51.48-.82.22-.3.46-.59.72-.85.26-.27.53-.49.79-.67.27-.18.52-.28.76-.28.12,0,.22.04.29.12.09.08.13.19.13.34ZM56.62,30.55c-.33.53-.72,1.05-1.18,1.55-.46.5-.94.95-1.44,1.34-.5.39-1,.71-1.5.95-.48.23-.9.34-1.26.34-.15,0-.29-.03-.4-.1-.1-.07-.18-.15-.25-.25-.06-.11-.1-.22-.13-.34-.02-.13-.03-.26-.03-.39,0-.27.04-.54.12-.82.08-.27.18-.52.29-.74.36-.08.78-.19,1.25-.34.47-.16.91-.34,1.31-.54.41-.21.77-.43,1.05-.67.28-.25.43-.51.43-.77,0-.22-.08-.38-.23-.49-.15-.12-.37-.18-.64-.18-.49,0-1.01.15-1.54.44-.54.29-1.03.66-1.48,1.11-.45.45-.82.94-1.12,1.47-.28.52-.43,1.02-.43,1.5,0,.44.13.77.38,1.01.25.23.61.34,1.07.34.37,0,.75-.07,1.13-.19.39-.14.78-.33,1.17-.55.38-.24.75-.51,1.1-.8.36-.3.7-.62,1-.93.32-.33.6-.65.84-.98.25-.33.46-.62.62-.9l-.13-.08Z"/>
          <path class="cls-2" d="M62.24,30.6c-.29.46-.64.92-1.03,1.4-.39.47-.83.9-1.3,1.31-.46.39-.96.73-1.49,1.01-.54.27-1.1.44-1.69.51l-.03-.03c.2-.03.39-.1.58-.21.19-.11.37-.24.52-.39.15-.16.27-.34.36-.52.1-.19.15-.4.15-.6,0-.28-.04-.54-.13-.77-.08-.23-.16-.45-.26-.67-.11-.22-.21-.44-.3-.65-.08-.22-.11-.44-.11-.68,0-.27.08-.5.23-.69.15-.2.39-.29.71-.29.25,0,.44.08.58.23.14.14.21.32.21.54,0,.14-.03.3-.08.47-.04.16-.1.3-.16.42.26,0,.5-.06.71-.19.22-.13.33-.34.33-.62,0-.31-.14-.56-.41-.75-.27-.2-.63-.29-1.07-.29-.24,0-.47.04-.69.11-.22.06-.42.16-.59.29-.16.13-.29.3-.39.49-.1.18-.15.4-.15.64,0,.18.04.39.12.6.08.21.16.42.25.64.09.22.16.44.23.67.08.22.12.43.12.64,0,.2-.03.39-.08.59-.05.19-.14.37-.26.52-.11.14-.25.26-.43.36-.16.09-.36.13-.59.13-.36,0-.69-.09-.99-.28-.28-.2-.42-.48-.42-.86,0-.13.02-.25.06-.37.04-.13.13-.23.25-.29.02.1.07.18.13.25.08.06.18.1.29.1.15,0,.27-.05.35-.16.08-.11.12-.24.12-.39,0-.16-.05-.28-.16-.36-.1-.09-.23-.13-.39-.13-.32,0-.57.12-.75.34-.19.23-.28.49-.28.77s.05.51.16.72c.1.19.23.36.39.49.17.13.38.23.61.29.23.06.48.1.74.1.69,0,1.34-.12,1.94-.37.61-.26,1.18-.6,1.69-1.01.52-.41.99-.88,1.41-1.39.44-.52.82-1.04,1.15-1.57l-.1-.05Z"/>
        </g>
        <path class="cls-2" d="M33.46,25.01c-.84.13-1.62.38-2.37.75-.74.36-1.44.79-2.1,1.29-.66-.5-1.4-.89-2.2-1.15-.8-.28-1.66-.42-2.58-.42-1.54,0-2.99.29-4.33.87-1.32.56-2.47,1.29-3.45,2.19-.98.88-1.75,1.84-2.32,2.89-.55,1.05-.83,2.06-.83,3.03,0,.55.07,1.07.21,1.57.16.5.38.94.66,1.32.3.37.67.68,1.11.91.46.22.99.33,1.58.33.79,0,1.51-.16,2.18-.49.66-.34,1.24-.82,1.73-1.41.49-.61.87-1.32,1.13-2.14.27-.83.4-1.73.4-2.7v-.68h-.29v.8c0,.83-.12,1.63-.35,2.39-.24.75-.57,1.42-.99,2-.41.56-.91,1.02-1.51,1.36-.58.33-1.23.49-1.94.49-.57,0-1.04-.09-1.42-.28-.38-.2-.68-.48-.92-.82-.24-.34-.4-.74-.5-1.18-.09-.46-.14-.93-.14-1.43,0-1.25.28-2.41.85-3.48.57-1.06,1.32-1.99,2.25-2.77.95-.78,2.02-1.39,3.22-1.83,1.21-.44,2.46-.66,3.74-.66.68,0,1.42.12,2.22.35.82.22,1.56.6,2.22,1.15-.84.69-1.61,1.5-2.32,2.44-.69.94-1.36,1.93-1.99,2.96-.61,1.02-1.21,2.04-1.8,3.08-.58,1.04-1.18,1.98-1.8,2.84-.6.86-1.24,1.61-1.92,2.23-.66.63-1.39,1.04-2.2,1.25-.41-.06-.76-.12-1.04-.17-.29-.06-.54-.12-.78-.16-.22-.05-.43-.08-.62-.09-.17-.03-.35-.05-.54-.05-.27,0-.49.04-.66.12-.16.06-.24.19-.24.38s.1.31.31.38c.21.08.5.12.88.12.31,0,.59,0,.83-.02.25-.02.47-.04.66-.07.2-.03.4-.07.59-.12.21-.03.42-.06.64-.09.27.06.53.12.78.16.27.06.55.11.85.14.32.05.66.08,1.04.09.38.03.81.05,1.3.05,1.29,0,2.57-.25,3.83-.75,1.26-.52,2.39-1.21,3.38-2.09,1.01-.89,1.82-1.94,2.44-3.15.62-1.22.92-2.54.92-3.95,0-.47-.04-.96-.12-1.46-.06-.5-.17-.99-.33-1.46-.16-.49-.36-.95-.62-1.39-.25-.44-.56-.83-.92-1.17.58-.55,1.23-1,1.94-1.36.73-.36,1.48-.61,2.27-.75l-.05-.19ZM20.31,42.44c-.63,0-1.2-.02-1.7-.05-.49-.03-.98-.09-1.47-.19v-.05c1.04-.33,1.96-.82,2.77-1.46.82-.66,1.56-1.4,2.22-2.23.66-.83,1.28-1.72,1.84-2.68.57-.96,1.12-1.92,1.65-2.89.54-.97,1.07-1.91,1.61-2.82.55-.91,1.15-1.72,1.8-2.44.39.42.68.95.85,1.6.17.63.26,1.25.26,1.88,0,.83-.1,1.69-.28,2.58-.17.88-.44,1.74-.8,2.58-.37.83-.81,1.62-1.35,2.37-.54.75-1.17,1.41-1.91,1.97-.73.55-1.55.99-2.46,1.31-.92.33-1.92.49-3.03.49Z"/>
      </g>
      <g>
        <g>
          <path class="cls-2" d="M71.27,81.93c-.02.15-.04.29-.09.44.17.18.56.28.8.28.67,0,1.21-.42,1.21-1.11,0-1.04-1.55-.68-1.55-1.58,0-.35.28-.57.62-.57.29,0,.51.16.61.43h.05c.04-.14.07-.27.13-.4-.18-.16-.47-.24-.7-.24-.59,0-1.09.31-1.09.94,0,1.11,1.54.7,1.54,1.61,0,.39-.29.71-.69.71s-.61-.2-.8-.51h-.05Z"/>
          <path class="cls-2" d="M73.88,82.59c.07,0,.14-.01.22-.01.07,0,.14,0,.22.01v-3.35c-.08,0-.15.01-.22.01-.07,0-.15,0-.22-.01v3.35Z"/>
          <path class="cls-2" d="M78.13,79.25c-.05,0-.09.01-.14.01-.05,0-.09,0-.14-.01v2.52h-.05l-2.34-2.52h-.19v3.35s.09-.01.14-.01c.04,0,.09,0,.14.01v-2.64h.05l2.13,2.34c.1.11.2.23.25.3h.15v-3.35Z"/>
          <path class="cls-2" d="M81.65,82.06c-.1.08-.51.4-1.04.4-.78,0-1.32-.6-1.32-1.54,0-.83.45-1.56,1.35-1.56.51,0,.87.33.94.42h.04c.02-.13.05-.26.1-.38-.33-.14-.7-.23-1.06-.23-1.04,0-1.85.63-1.85,1.73s.65,1.75,1.73,1.75c.38,0,.78-.07,1.09-.28l.03-.31Z"/>
          <path class="cls-2" d="M82.77,79.48h.87c.15.02.3.03.44.06,0-.05-.01-.1-.01-.15s.01-.09.01-.15h-1.75v3.33h1.78s-.01-.1-.01-.15,0-.09.01-.15c-.15.02-.3.04-.45.04-.29.01-.59.03-.89.02v-1.43h.76c.15,0,.29.02.44.02,0-.05-.01-.1-.01-.14,0-.04,0-.09.01-.13-.15,0-.29.02-.44.02h-.76v-1.23Z"/>
          <path class="cls-2" d="M86.92,82.59c.06,0,.13-.01.2-.01.06,0,.12,0,.2.01v-3.33l-.08-.03c-.29.18-.71.37-1.04.5.07.04.12.11.15.18l.54-.29.04.02v2.95Z"/>
          <path class="cls-2" d="M88.94,82.32c.06.09.09.17.1.25.02.02.18.06.39.06.78,0,1.43-.8,1.43-1.93,0-.7-.29-1.4-1.07-1.4-.65,0-1.1.4-1.1,1.04,0,.59.41.94.93.94.32,0,.63-.16.79-.44,0,.31-.04.63-.16.92-.17.45-.48.71-.78.71-.17,0-.35-.07-.48-.18l-.06.02ZM90.41,80.3c0,.38-.24.78-.67.78-.45,0-.61-.39-.61-.77,0-.41.17-.86.65-.86.41,0,.64.36.63.85Z"/>
          <path class="cls-2" d="M91.68,82.32c.06.09.09.17.1.25.03.02.18.06.39.06.78,0,1.43-.8,1.43-1.93,0-.7-.29-1.4-1.07-1.4-.66,0-1.1.4-1.1,1.04,0,.59.41.94.93.94.33,0,.63-.16.79-.44,0,.31-.04.63-.16.92-.17.45-.48.71-.78.71-.17,0-.35-.07-.48-.18l-.05.02ZM93.15,80.3c0,.38-.25.78-.67.78-.45,0-.62-.39-.62-.77,0-.41.17-.86.66-.86.41,0,.64.36.63.85Z"/>
          <path class="cls-2" d="M94.42,82.32c.06.09.09.17.1.25.02.02.18.06.39.06.78,0,1.43-.8,1.43-1.93,0-.7-.29-1.4-1.07-1.4-.65,0-1.1.4-1.1,1.04,0,.59.41.94.93.94.33,0,.63-.16.79-.44,0,.31-.04.63-.16.92-.17.45-.48.71-.78.71-.17,0-.35-.07-.48-.18l-.05.02ZM95.88,80.3c0,.38-.25.78-.67.78-.45,0-.62-.39-.62-.77,0-.41.17-.86.66-.86.41,0,.64.36.63.85Z"/>
        </g>
        <g>
          <path class="cls-2" d="M66.24,75.27c-.35,0-.69.02-1.03.02s-.69-.01-1.04-.02v-1.4c-.08,0-.15.01-.22.01-.08,0-.15,0-.22-.01v3.34c.07,0,.14-.01.22-.01.07,0,.14.01.22.01v-1.68c.35-.01.69-.02,1.04-.02s.68.01,1.03.02v1.68c.07,0,.14-.01.22-.01.07,0,.14.01.22.01v-3.34c-.08,0-.15.01-.22.01-.07,0-.15,0-.22-.01v1.4Z"/>
          <path class="cls-2" d="M68.85,73.79h-.11l-1.54,3.42c.06,0,.11-.01.17-.01.06,0,.11.01.18.01.14-.46.31-.89.49-1.32h1.25c.2.44.37.91.52,1.32.08,0,.17-.01.26-.01.08,0,.16.01.26.01l-1.48-3.42ZM69.22,75.68h-1.08l.54-1.25.55,1.25Z"/>
          <path class="cls-2" d="M71.23,75.67c.12,0,.44.04.66,0,.69-.13,1.05-.4,1.05-1s-.31-.8-1.27-.8h-.88v3.34c.07,0,.14-.01.21-.01.07,0,.14.01.22.01v-1.54ZM71.23,74.05c.15,0,.5-.01.71,0,.39.03.56.3.56.63,0,.44-.29.74-.78.79-.17.01-.36.01-.49,0v-1.43Z"/>
          <path class="cls-2" d="M73.97,75.67c.12,0,.44.04.66,0,.69-.13,1.05-.4,1.05-1s-.31-.8-1.27-.8h-.88v3.34c.07,0,.14-.01.22-.01.07,0,.14.01.22.01v-1.54ZM73.97,74.05c.15,0,.5-.01.71,0,.39.03.56.3.56.63,0,.44-.29.74-.78.79-.17.01-.37.01-.49,0v-1.43Z"/>
          <path class="cls-2" d="M77.62,75.71c.06-.14.16-.32.28-.49l.54-.87c.11-.17.23-.33.35-.49-.07,0-.13.01-.19.01-.06,0-.13,0-.19-.01-.14.26-.77,1.44-.94,1.64-.16-.24-.74-1.26-.94-1.64-.1,0-.19.01-.27.01-.09,0-.19,0-.28-.01l1.2,1.94v1.41c.07,0,.14-.01.22-.01.07,0,.14.01.22.01v-1.5Z"/>
          <path class="cls-2" d="M81.14,74.04c.21,0,.54-.03.72,0,.37.06.54.28.54.62,0,.38-.27.62-.63.7-.25.05-.57.03-.63.03v-1.34ZM80.7,77.21c.07,0,.14-.01.22-.01s.14.01.22.01v-1.63h.19l.39.46.58.75c.1.14.2.27.31.42.09,0,.19-.01.28-.01s.18.01.29.01l-.09-.12-.24-.27-1.02-1.28c.5-.09,1.01-.36,1.01-.93,0-.5-.33-.74-1.09-.74h-1.04v3.34Z"/>
          <path class="cls-2" d="M83.74,77.21c.07,0,.14-.01.22-.01.07,0,.14.01.21.01v-3.34c-.08,0-.15.01-.21.01-.07,0-.15,0-.22-.01v3.34Z"/>
          <path class="cls-2" d="M87.67,76.68c-.1.08-.51.39-1.04.39-.78,0-1.32-.6-1.32-1.54,0-.83.45-1.56,1.35-1.56.5,0,.87.33.94.42h.03c.03-.13.05-.26.1-.38-.33-.14-.7-.22-1.06-.22-1.04,0-1.85.62-1.85,1.72s.65,1.75,1.73,1.75c.37,0,.78-.07,1.09-.28l.03-.31Z"/>
          <path class="cls-2" d="M88.79,74.09h.87c.15.02.29.04.44.06,0-.05-.01-.1-.01-.15,0-.05,0-.09.01-.15h-1.75v3.33h1.78s-.02-.1-.02-.15.01-.09.02-.15c-.15.03-.3.04-.45.04-.3,0-.59.03-.89.02v-1.43h.76c.15,0,.29.02.44.02,0-.06-.02-.1-.02-.14,0-.04,0-.09.02-.13-.15,0-.29.02-.44.02h-.76v-1.23Z"/>
          <path class="cls-2" d="M92.19,77.21c.07,0,.14-.01.22-.01s.14.01.22.01v-1.67h.76c.15,0,.29.02.44.02,0-.06-.01-.1-.01-.14,0-.04.01-.09.01-.13-.15,0-.29.02-.44.02h-.76v-1.23h.87c.15.02.3.04.44.06,0-.05-.02-.1-.02-.15,0-.05,0-.09.02-.15h-1.75v3.34Z"/>
          <path class="cls-2" d="M94.68,77.21c.07,0,.14-.01.22-.01.07,0,.14.01.22.01v-3.34c-.08,0-.15.01-.22.01-.07,0-.15,0-.22-.01v3.34Z"/>
          <path class="cls-2" d="M96.46,74.09h.87c.15.02.29.04.44.06,0-.05-.01-.1-.01-.15,0-.05,0-.09.01-.15h-1.75v3.33h1.78s-.01-.1-.01-.15,0-.09.01-.15c-.15.03-.3.04-.45.04-.3,0-.59.03-.89.02v-1.43h.76c.15,0,.29.02.44.02,0-.06-.01-.1-.01-.14,0-.04,0-.09.01-.13-.15,0-.29.02-.44.02h-.76v-1.23Z"/>
          <path class="cls-2" d="M98.92,73.86c-.08,0-.15.01-.22.01s-.15,0-.22-.01v3.33h1.79s-.02-.1-.02-.15.01-.09.02-.15c-.16.02-.31.04-.47.04-.29,0-.59.03-.89.02v-3.1Z"/>
          <path class="cls-2" d="M101.44,74.06c.21,0,.42-.02.62-.02,1.1,0,1.53.38,1.53,1.41,0,.6-.18,1.14-.71,1.4-.4.2-1.01.14-1.44.12v-2.91ZM101,77.19h.96c.52,0,1.07-.01,1.49-.37.37-.32.62-.76.62-1.44,0-.46-.16-.92-.53-1.22-.41-.34-.91-.29-1.42-.29h-1.12v3.33Z"/>
        </g>
      </g>
      <g>
        <path class="cls-2" d="M15.08,54.1c-1.6-1.02-3.47-1.41-5.31-1.41-6.4,0-9.77,4.69-9.77,9.33,0,5.89,4.51,9.02,9.57,9.02,1.72,0,3.39-.31,4.94-1.12.58-1.51,1.04-3.07,1.33-4.66l-.34-.16c-1.09,2.82-2.35,5.32-5.52,5.32-3.52,0-7.17-3.57-7.17-8.7,0-4.48,2.5-8.39,6.93-8.39,2.91,0,4.51,2.11,4.97,5.06h.36v-4.28Z"/>
        <path class="cls-2" d="M17.26,57.03c2.15.33,2.17.96,2.23,3.11v7.25c-.06,2.15-.08,2.78-2.34,3.11v.31l5.63.04c6.5.06,8.24-4.12,8.24-7.1,0-2.17-.87-7.48-9.18-7.18l-4.57.17v.29ZM21.15,56.99c4.1-.02,7.67,2.07,7.67,7.08s-2.93,6.26-5.1,6.26c-2.34,0-2.57-1.34-2.57-2.73v-10.61Z"/>
        <path class="cls-2" d="M34.17,70.03c.55,0,1.01-.45,1.01-1s-.46-1.03-1.01-1.03-.99.47-.99,1.03.44,1,.99,1Z"/>
        <path class="cls-2" d="M47.77,57.61c-.5.4-.58.38-1.24.38h-9.13c-.66,0-.74.02-1.24-.38l-.2-.16h-.16l-.28,3.24.28.05c.7-2.15,1.8-2.24,4.09-2.24h1.2v8.01c0,2.15-.12,2.72-2.79,3v.26h7.34v-.26c-2.67-.28-2.79-.85-2.79-3v-8.01h1.2c2.29,0,3.39.09,4.09,2.24l.28-.05-.28-3.24h-.16l-.2.16Z"/>
        <path class="cls-2" d="M55.94,64.84c.52,1.21,1.28,2.84,1.28,3.57,0,.78-.84.97-1.54,1.11v.26h5.86v-.26c-1.59-.26-1.93-.76-2.47-2.03l-4.39-10.16c-.42.43-.92.75-1.46.94.22.33-.04.75-.22,1.2l-1.2,2.82-2.25,5.11c-.62,1.35-.8,1.7-2.57,2.11v.26h5.46v-.26c-.9-.12-2.27-.12-2.27-1.18,0-.83.88-2.63,1.22-3.5h4.55ZM55.68,64.04h-3.95l1.87-4.5,2.07,4.5Z"/>
        <path class="cls-2" d="M67.11,60.84c.06-1.79.08-2.31,2.12-2.58v-.26h-6.34v.26c2.39.28,2.41.8,2.47,2.58v6.1c-.06,1.78-.08,2.3-2.47,2.58v.26h6.88v-.26c-2.57-.28-2.59-.8-2.65-2.58v-6.1ZM70.96,57.99v.26c1.34.12,1.74.69-.36,2.74l-3.21,3.03,4.07,3.85c1.87,1.79,2.44,1.87,5.91,2.12l.1-.26c-1.78-.43-3.21-1.47-4.43-2.63l-4.05-3.88,1.88-1.73c1.48-1.33,2.99-3.02,5.26-3.22v-.26h-5.16Z"/>
        <path class="cls-2" d="M84.16,57.79c-4.17,0-7.28,2.39-7.28,6.08s3.09,6.12,7.3,6.12,7.3-2.38,7.3-6.1c0-3.08-2.21-6.1-7.32-6.1ZM84,58.2c3.05,0,5.1,2.91,5.16,5.98,0,2.48-1.45,5.39-4.75,5.39-3.59,0-5.22-3.43-5.22-6.12,0-2.34,1.37-5.25,4.81-5.25Z"/>
        <path class="cls-2" d="M96.32,64.08h8.02v2.86c0,1.91-.04,2.25-2.65,2.58v.26h6.88v-.26c-2.39-.28-2.41-.8-2.47-2.58v-6.1c.06-1.79.08-2.31,2.47-2.58v-.26h-6.88v.26c2.61.33,2.65.68,2.65,2.58v2.51h-8.02v-2.51c0-1.91.04-2.25,2.65-2.58v-.26h-6.88v.26c2.39.28,2.41.8,2.47,2.58v6.1c-.06,1.78-.08,2.3-2.47,2.58v.26h6.88v-.26c-2.61-.33-2.65-.68-2.65-2.58v-2.86Z"/>
      </g>
      <path class="cls-1" d="M121.26,68.25l-.36.69-.28.79h-8.9l-.43-.83c2.59-1.89,6.64-5.11,6.64-7.91,0-1.46-1.22-2.13-2.88-2.13-1.02,0-2.03.26-2.72.55l-.51-.61c.97-.79,2.42-1.42,4.32-1.42,2.37,0,4.22,1.12,4.22,3.18,0,3.12-4.91,6.63-6.59,7.73l7.48-.33v.3Z"/>
    </g>
  </g>
</svg>